<?xml version="1.0" encoding="UTF-8"?>
<!DOCTYPE svg PUBLIC "-//W3C//DTD SVG 1.1//EN" "http://www.w3.org/Graphics/SVG/1.1/DTD/svg11.dtd">
<svg xmlns="http://www.w3.org/2000/svg" version="1.1" width="1085px" height="1075px" style="shape-rendering:geometricPrecision; text-rendering:geometricPrecision; image-rendering:optimizeQuality; fill-rule:evenodd; clip-rule:evenodd" xmlns:xlink="http://www.w3.org/1999/xlink">
<g><path style="opacity:0.99" fill="#a253b8" d="M 685.5,-0.5 C 686.167,-0.5 686.833,-0.5 687.5,-0.5C 698.96,7.38665 706.793,18.0533 711,31.5C 713.091,39.7116 714.424,48.0449 715,56.5C 715.555,75.6898 715.055,94.8564 713.5,114C 712.813,137.262 718.98,158.429 732,177.5C 743.026,189.401 756.692,195.068 773,194.5C 787.283,193.472 801.116,190.305 814.5,185C 830.469,176.682 846.469,168.348 862.5,160C 873.376,154.93 884.71,151.263 896.5,149C 908.791,147.16 920.457,148.993 931.5,154.5C 931.634,156.292 931.301,157.958 930.5,159.5C 903.576,165.377 880.743,178.377 862,198.5C 853.894,207.938 846.561,217.938 840,228.5C 810.267,259.895 774.434,269.729 732.5,258C 680.866,239.224 655.033,202.391 655,147.5C 655.766,137.769 658.099,128.436 662,119.5C 674.153,101.053 682.819,81.053 688,59.5C 691.488,42.3113 691.321,25.3113 687.5,8.5C 687.5,8.16667 687.5,7.83333 687.5,7.5C 687.142,4.7334 686.475,2.06674 685.5,-0.5 Z"/></g>
<g><path style="opacity:0.989" fill="#2a8b84" d="M 396.5,7.5 C 395.27,9.29719 394.604,11.2972 394.5,13.5C 389.173,39.6713 391.007,65.3379 400,90.5C 406.35,104.531 412.683,118.531 419,132.5C 428.176,191.649 405.343,233.149 350.5,257C 309.649,271.057 273.149,263.891 241,235.5C 232.277,223.776 223.944,211.776 216,199.5C 200.578,180.227 181.412,166.227 158.5,157.5C 156.367,153.516 155.367,149.183 155.5,144.5C 167.676,142.676 179.676,143.509 191.5,147C 201.522,150.51 211.188,154.843 220.5,160C 233.907,168.399 247.574,176.399 261.5,184C 278.885,192.597 297.218,195.93 316.5,194C 331.155,191.676 342.321,184.176 350,171.5C 359.028,156.057 364.028,139.391 365,121.5C 365.513,109.162 365.347,96.8285 364.5,84.5C 364.147,65.6482 366.981,47.3149 373,29.5C 378.226,18.2741 386.226,9.60742 397,3.5C 397.579,4.92847 397.412,6.2618 396.5,7.5 Z"/></g>
<g><path style="opacity:0.998" fill="#063f8a" d="M 396.5,7.5 C 410.734,9.36701 422.9,15.367 433,25.5C 440.973,34.1178 447.973,43.4511 454,53.5C 462,67.5 470,81.5 478,95.5C 490.455,114.291 507.289,127.458 528.5,135C 541.709,137.618 554.043,135.284 565.5,128C 580.333,118.5 592.5,106.333 602,91.5C 610.657,74.1785 620.323,57.5118 631,41.5C 640.022,28.4744 651.522,18.3077 665.5,11C 672.645,8.64252 679.978,7.47586 687.5,7.5C 687.5,7.83333 687.5,8.16667 687.5,8.5C 664.812,29.1974 650.979,54.8641 646,85.5C 644.241,98.4362 643.241,111.436 643,124.5C 635.995,156.699 617.828,180.199 588.5,195C 557.125,208.231 525.458,208.898 493.5,197C 464.784,183.954 445.618,162.454 436,132.5C 434.022,116.878 432.355,101.211 431,85.5C 427.168,62.1808 418.168,41.1808 404,22.5C 400.938,19.2678 397.771,16.2678 394.5,13.5C 394.604,11.2972 395.27,9.29719 396.5,7.5 Z"/></g>
<g><path style="opacity:0.998" fill="#063f8b" d="M 526.5,25.5 C 538.257,24.2849 549.257,26.4516 559.5,32C 579.599,46.5297 585.765,65.6964 578,89.5C 566.701,112.066 548.535,121.233 523.5,117C 498.333,108.497 486.833,90.9968 489,64.5C 493.23,43.4383 505.73,30.4383 526.5,25.5 Z"/></g>
<g><path style="opacity:0.989" fill="#2a8b84" d="M 297.5,84.5 C 329.071,84.242 346.738,99.742 350.5,131C 347.868,158.465 332.868,173.965 305.5,177.5C 276.527,175.36 260.527,159.86 257.5,131C 259.598,105.741 272.932,90.2409 297.5,84.5 Z"/></g>
<g><path style="opacity:0.991" fill="#a253b8" d="M 764.5,84.5 C 797.309,82.6435 815.975,97.9769 820.5,130.5C 816.375,162.124 798.375,177.291 766.5,176C 739.716,169.267 726.883,152.1 728,124.5C 731.707,103.299 743.874,89.9653 764.5,84.5 Z"/></g>
<g><path style="opacity:0.911" fill="#2e8d85" d="M 154.5,145.5 C 153.32,148.54 151.653,151.206 149.5,153.5C 146.312,153.382 143.312,152.549 140.5,151C 144.863,148.316 149.53,146.482 154.5,145.5 Z"/></g>
<g><path style="opacity:0.991" fill="#5ab5d6" d="M 1083.5,401.5 C 1079.5,400.5 1075.5,399.5 1071.5,398.5C 1069.24,397.781 1066.9,397.448 1064.5,397.5C 1040.13,393.884 1016.46,396.717 993.5,406C 980.62,412.274 967.62,418.274 954.5,424C 904.885,433.102 866.385,416.602 839,374.5C 816.397,335.051 817.064,296.051 841,257.5C 845.8,251.698 850.967,246.198 856.5,241C 873.086,231.42 888.252,219.92 902,206.5C 914.552,192.737 924.052,177.07 930.5,159.5C 931.301,157.958 931.634,156.292 931.5,154.5C 932.6,151.207 933.767,147.874 935,144.5C 942.387,156.92 944.72,170.253 942,184.5C 935.338,208.821 924.671,231.154 910,251.5C 899.095,269.714 892.928,289.381 891.5,310.5C 891.268,330.882 899.935,346.049 917.5,356C 930.266,363.144 943.933,367.477 958.5,369C 979.833,369.333 1001.17,369.667 1022.5,370C 1039.49,370.493 1055.15,375.16 1069.5,384C 1075.54,388.862 1080.21,394.695 1083.5,401.5 Z"/></g>
<g><path style="opacity:0.987" fill="#fed147" d="M 155.5,144.5 C 155.367,149.183 156.367,153.516 158.5,157.5C 167.408,186.476 184.075,209.976 208.5,228C 246.517,249.185 264.35,281.685 262,325.5C 257.176,361.948 239.676,390.448 209.5,411C 181.193,427.58 151.527,430.58 120.5,420C 102.593,408.381 83.26,400.047 62.5,395C 45.9188,391.212 29.2522,390.712 12.5,393.5C 11.1667,393.833 9.83333,394.167 8.5,394.5C 5.54818,395.654 2.54818,396.654 -0.5,397.5C -0.5,396.833 -0.5,396.167 -0.5,395.5C 6.65579,384.193 16.6558,376.36 29.5,372C 38.9718,369.218 48.6384,367.552 58.5,367C 76.5617,366.26 94.5617,366.76 112.5,368.5C 135.954,368.736 157.287,362.236 176.5,349C 190.32,336.211 195.82,320.378 193,301.5C 191.722,289.388 188.722,277.721 184,266.5C 176.841,252.179 169.175,238.179 161,224.5C 152.503,208.508 147.336,191.508 145.5,173.5C 146.002,166.644 147.335,159.977 149.5,153.5C 151.653,151.206 153.32,148.54 154.5,145.5C 154.5,144.833 154.833,144.5 155.5,144.5 Z"/></g>
<g><path style="opacity:0.969" fill="#000000" d="M 505.5,220.5 C 561.639,215.16 615.639,223.327 667.5,245C 685.437,253.964 703.103,263.298 720.5,273C 734.041,284.877 747.875,296.377 762,307.5C 847.156,395.746 876.156,500.079 849,620.5C 820.421,719.076 759.588,789.909 666.5,833C 645.997,840.945 624.997,847.279 603.5,852C 512.876,868.546 429.876,850.879 354.5,799C 304.797,762.081 267.63,715.248 243,658.5C 236.24,637.791 230.573,616.791 226,595.5C 211.831,509.003 228.831,429.336 277,356.5C 315.231,303.948 364.397,265.115 424.5,240C 451.067,231.107 478.067,224.607 505.5,220.5 Z M 510.5,248.5 C 515.313,248.22 519.98,248.886 524.5,250.5C 525.667,282.161 525.833,313.828 525,345.5C 524.805,351.564 524.139,357.564 523,363.5C 522.25,364.126 521.416,364.626 520.5,365C 478.512,367.521 436.512,368.021 394.5,366.5C 411.249,322.25 439.582,287.417 479.5,262C 489.639,256.928 499.972,252.428 510.5,248.5 Z M 558.5,248.5 C 565.941,248.61 572.941,250.444 579.5,254C 617.734,272.567 647.234,300.4 668,337.5C 672.899,346.13 677.399,354.964 681.5,364C 676.679,365.279 671.679,365.946 666.5,366C 632.167,366.667 597.833,366.667 563.5,366C 560.044,365.82 556.711,365.153 553.5,364C 552.809,362.933 552.309,361.766 552,360.5C 551.44,331.159 551.774,301.826 553,272.5C 553.225,265.782 553.892,259.115 555,252.5C 555.69,250.65 556.856,249.316 558.5,248.5 Z M 653.5,269.5 C 677.153,278.51 699.153,291.01 719.5,307C 733.658,319.158 747.158,331.992 760,345.5C 762.761,349.35 765.761,353.017 769,356.5C 771.06,359.286 772.56,362.286 773.5,365.5C 754.141,366.954 734.808,366.788 715.5,365C 706.268,350.093 697.434,334.926 689,319.5C 676.915,302.931 665.082,286.264 653.5,269.5 Z M 414.5,274.5 C 416.355,274.272 417.188,274.939 417,276.5C 405.61,292.225 394.61,308.225 384,324.5C 376.967,338.847 369.134,352.68 360.5,366C 342.702,370.446 324.869,370.612 307,366.5C 306.333,365.167 306.333,363.833 307,362.5C 335.916,324.492 371.75,295.159 414.5,274.5 Z M 749.5,392.5 C 763.171,392.333 776.837,392.5 790.5,393C 792.96,394.458 795.127,396.291 797,398.5C 816.852,435.388 828.185,474.721 831,516.5C 830.167,517.333 829.333,518.167 828.5,519C 824.227,520.03 819.894,520.697 815.5,521C 796.833,521.667 778.167,521.667 759.5,521C 755.442,520.66 751.442,519.993 747.5,519C 747,518.5 746.5,518 746,517.5C 743.226,497.911 740.893,478.244 739,458.5C 735.56,443.527 732.227,428.527 729,413.5C 727.462,408.385 725.628,403.385 723.5,398.5C 724.145,396.568 725.479,395.401 727.5,395C 734.981,394.142 742.314,393.308 749.5,392.5 Z M 293.5,394.5 C 310.837,394.333 328.17,394.5 345.5,395C 348.568,394.907 350.568,396.24 351.5,399C 346.003,415.821 341.837,432.987 339,450.5C 335.195,473.078 332.195,495.744 330,518.5C 328.442,520.768 326.276,521.934 323.5,522C 300.151,523.909 276.818,523.909 253.5,522C 252.107,520.829 251.273,519.329 251,517.5C 249.663,500.533 251.33,483.866 256,467.5C 261.658,447.193 268.992,427.526 278,408.5C 280.467,404.4 283.301,400.566 286.5,397C 288.927,396.098 291.26,395.264 293.5,394.5 Z M 395.5,394.5 C 435.168,394.333 474.835,394.5 514.5,395C 520.372,394.173 523.205,396.673 523,402.5C 523.326,441.834 523.159,481.167 522.5,520.5C 472.499,520.949 422.499,521.115 372.5,521C 368.049,520.87 363.716,520.204 359.5,519C 359.905,485.718 364.405,452.885 373,420.5C 375.273,413.014 377.94,405.68 381,398.5C 381.833,397.667 382.667,396.833 383.5,396C 387.688,395.824 391.688,395.324 395.5,394.5 Z M 551.5,395.5 C 599.168,395.333 646.834,395.5 694.5,396C 701.923,414.521 707.089,433.688 710,453.5C 712.738,468.402 714.738,483.402 716,498.5C 716.92,505.276 716.586,511.943 715,518.5C 707.299,520.073 699.466,520.906 691.5,521C 655.833,521.667 620.167,521.667 584.5,521C 573.361,520.996 562.361,519.996 551.5,518C 550.498,477.235 550.498,436.401 551.5,395.5 Z M 777.5,546.5 C 794.526,546.206 811.526,546.706 828.5,548C 829.416,548.374 830.25,548.874 831,549.5C 831.564,552.155 832.064,554.821 832.5,557.5C 829.612,588.718 822.779,619.051 812,648.5C 808.802,657.23 804.802,665.563 800,673.5C 797.167,677.667 793.667,681.167 789.5,684C 768.197,685.39 746.863,685.89 725.5,685.5C 725.335,681.818 725.501,678.152 726,674.5C 731.528,657.53 735.528,640.197 738,622.5C 740.942,599.13 743.942,575.797 747,552.5C 747.652,550.277 749.152,549.11 751.5,549C 760.321,548.183 768.988,547.35 777.5,546.5 Z M 283.5,548.5 C 292.839,548.334 302.173,548.5 311.5,549C 317.161,549.094 322.661,549.927 328,551.5C 329.625,555.332 330.625,559.332 331,563.5C 334.178,604.902 341.344,645.569 352.5,685.5C 334.563,687.454 316.563,687.954 298.5,687C 291.801,686.295 286.635,683.129 283,677.5C 262.149,639.094 251.149,598.094 250,554.5C 250.465,553.069 251.299,551.903 252.5,551C 262.967,549.994 273.301,549.161 283.5,548.5 Z M 627.5,548.5 C 650.502,548.333 673.502,548.5 696.5,549C 703.081,549.187 709.581,549.687 716,550.5C 717.568,558.421 717.901,566.421 717,574.5C 714.385,601.856 709.718,628.856 703,655.5C 700.629,665.785 696.796,675.451 691.5,684.5C 644.505,685.5 597.505,685.833 550.5,685.5C 550.067,682.834 549.567,680.168 549,677.5C 548.15,635.413 549.316,593.413 552.5,551.5C 555.447,550.679 558.447,550.179 561.5,550C 583.67,549.832 605.67,549.332 627.5,548.5 Z M 374.5,549.5 C 423.842,549.231 473.176,549.564 522.5,550.5C 522.667,591.168 522.5,631.835 522,672.5C 521.821,677.652 520.988,682.652 519.5,687.5C 483.165,687.667 446.832,687.5 410.5,687C 401.773,686.877 393.106,686.21 384.5,685C 382.288,682.079 380.455,678.912 379,675.5C 365.712,635.116 359.379,593.783 360,551.5C 364.934,550.856 369.767,550.19 374.5,549.5 Z M 511.5,712.5 C 514.747,712.415 517.581,713.415 520,715.5C 521.53,752.173 521.364,788.84 519.5,825.5C 509.869,827.063 500.535,825.896 491.5,822C 462.419,806.528 438.252,785.361 419,758.5C 411.034,745.4 403.201,732.233 395.5,719C 395.82,717.347 396.82,716.347 398.5,716C 430.819,714.819 463.153,714.152 495.5,714C 501.016,713.827 506.349,713.327 511.5,712.5 Z M 574.5,712.5 C 600.502,712.333 626.502,712.5 652.5,713C 660.87,713.261 669.203,713.928 677.5,715C 678.428,715.388 679.095,716.055 679.5,717C 660.842,759.991 631.509,793.658 591.5,818C 578.596,824.643 564.929,827.976 550.5,828C 549.773,826.601 549.273,825.101 549,823.5C 548.333,795.5 548.333,767.5 549,739.5C 549.224,731.457 549.891,723.457 551,715.5C 558.882,714.092 566.715,713.092 574.5,712.5 Z M 730.5,712.5 C 741.483,712.566 752.317,712.566 763,712.5C 765.405,713.274 767.905,713.774 770.5,714C 771.308,714.308 771.975,714.808 772.5,715.5C 764.15,728.356 754.15,739.856 742.5,750C 731.794,759.709 720.794,769.042 709.5,778C 696,786.584 682.333,794.918 668.5,803C 663.723,805.723 658.723,807.889 653.5,809.5C 653.167,809.167 652.833,808.833 652.5,808.5C 675.491,780.545 694.991,750.212 711,717.5C 711.833,716.667 712.667,715.833 713.5,715C 719.288,714.039 724.955,713.205 730.5,712.5 Z M 324.5,714.5 C 335.873,714.207 347.206,714.707 358.5,716C 364.105,718.693 368.272,722.86 371,728.5C 384.244,754.566 400.077,778.899 418.5,801.5C 416.926,802.631 415.259,802.798 413.5,802C 392.014,792.431 372.347,780.098 354.5,765C 337.911,750.58 322.911,734.747 309.5,717.5C 310.025,716.808 310.692,716.308 311.5,716C 316.019,715.825 320.353,715.325 324.5,714.5 Z"/></g>
<g><path style="opacity:0.987" fill="#ffd147" d="M 126.5,254.5 C 162.959,254.792 180.459,273.125 179,309.5C 170.64,337.857 151.807,350.024 122.5,346C 96.9167,337.39 85.4167,319.556 88,292.5C 92.7847,271.548 105.618,258.881 126.5,254.5 Z"/></g>
<g><path style="opacity:0.99" fill="#5ab5d6" d="M 946.5,255.5 C 968.609,254.635 984.776,263.969 995,283.5C 1003.85,311.313 995.346,331.813 969.5,345C 942.225,353.107 922.058,344.607 909,319.5C 901.358,295.425 907.858,276.258 928.5,262C 934.301,258.903 940.301,256.736 946.5,255.5 Z"/></g>
<g><path style="opacity:0.992" fill="#ed1e2f" d="M 12.5,393.5 C 24.803,406.952 39.4696,417.119 56.5,424C 63.9244,427.106 71.5911,429.44 79.5,431C 97.4704,433.362 115.47,435.362 133.5,437C 172.482,450.318 196.315,477.151 205,517.5C 212.134,559.769 199.967,595.269 168.5,624C 157.993,632.154 146.326,638.154 133.5,642C 117.529,643.811 101.529,645.478 85.5,647C 64.3052,650.6 44.9718,658.6 27.5,671C 21.9969,675.337 16.9969,680.17 12.5,685.5C 11.0413,685.567 9.70792,685.234 8.5,684.5C 10.4018,665.868 18.7351,650.701 33.5,639C 41.2224,632.945 49.2224,627.278 57.5,622C 71.8256,614.506 85.8256,606.506 99.5,598C 150.432,558.337 150.099,519.003 98.5,480C 82.3295,470.414 65.9961,461.08 49.5,452C 36.752,443.92 25.9187,433.753 17,421.5C 12.2416,413.061 9.40831,404.061 8.5,394.5C 9.83333,394.167 11.1667,393.833 12.5,393.5 Z"/></g>
<g><path style="opacity:0.987" fill="#ffd147" d="M 1064.5,397.5 C 1066.9,397.448 1069.24,397.781 1071.5,398.5C 1069.47,414.034 1062.47,426.868 1050.5,437C 1030.51,452.336 1009.18,465.669 986.5,477C 969.751,488.079 956.918,502.579 948,520.5C 941.782,534.45 942.449,548.117 950,561.5C 957.643,575.813 968.143,587.647 981.5,597C 995.842,605.839 1010.51,614.173 1025.5,622C 1041.18,631.014 1054.35,642.847 1065,657.5C 1068.89,664.339 1071.06,671.672 1071.5,679.5C 1069.56,680.15 1067.56,680.483 1065.5,680.5C 1046.65,661.91 1023.99,650.41 997.5,646C 984.915,644.059 972.248,643.059 959.5,643C 914.955,633.79 887.455,606.956 877,562.5C 868.824,515.728 883.324,477.895 920.5,449C 929.78,443.027 939.78,438.694 950.5,436C 964.796,434.335 979.13,433.002 993.5,432C 1020.71,427.391 1044.38,415.891 1064.5,397.5 Z"/></g>
<g><path style="opacity:0.031" fill="#40bfff" d="M 1083.5,401.5 C 1083.83,401.5 1084.17,401.5 1084.5,401.5C 1084.5,401.833 1084.5,402.167 1084.5,402.5C 1084.17,402.167 1083.83,401.833 1083.5,401.5 Z"/></g>
<g><path style="opacity:0.987" fill="#ffd147" d="M 1001.5,488.5 C 1037.46,488.627 1054.96,506.627 1054,542.5C 1049.71,562.121 1037.88,574.621 1018.5,580C 990.052,583.529 971.552,571.695 963,544.5C 959.981,514.719 972.815,496.052 1001.5,488.5 Z"/></g>
<g><path style="opacity:0.992" fill="#ed1e2f" d="M 69.5,496.5 C 96.6419,496.82 113.142,510.153 119,536.5C 120.713,564.773 107.88,582.273 80.5,589C 58.2739,591.471 41.7739,582.971 31,563.5C 21.673,538.487 27.8396,518.321 49.5,503C 55.893,499.577 62.5597,497.411 69.5,496.5 Z"/></g>
<g><path style="opacity:0.998" fill="#073f8b" d="M 164.5,914.5 C 162.894,917.986 161.894,921.653 161.5,925.5C 161.102,928.34 160.269,931.007 159,933.5C 156.438,928.193 153.271,923.359 149.5,919C 150.516,918.481 151.182,917.647 151.5,916.5C 149.645,908.483 149.479,900.483 151,892.5C 152.724,884.328 155.057,876.328 158,868.5C 165.298,851.902 173.631,835.902 183,820.5C 214.185,750.839 191.851,714.172 116,710.5C 96.5144,711.812 77.0144,712.312 57.5,712C 40.0358,711.624 24.3692,706.29 10.5,696C 6.78377,691.952 3.45044,687.618 0.5,683C 3.11234,683.359 5.77901,683.859 8.5,684.5C 9.70792,685.234 11.0413,685.567 12.5,685.5C 38.7045,689.512 64.0378,686.346 88.5,676C 100.118,670.524 111.452,664.524 122.5,658C 176.079,642.856 218.246,658.356 249,704.5C 272.503,746.242 270.503,786.576 243,825.5C 239.5,829 236,832.5 232.5,836C 209.473,849.359 190.64,867.192 176,889.5C 171.607,897.616 167.774,905.949 164.5,914.5 Z"/></g>
<g><path style="opacity:0.99" fill="#2a8c84" d="M 1065.5,680.5 C 1067.56,680.483 1069.56,680.15 1071.5,679.5C 1073.78,678.054 1076.12,677.721 1078.5,678.5C 1071.74,690.087 1062.08,698.254 1049.5,703C 1039.08,706.284 1028.41,708.284 1017.5,709C 1001.66,709.666 985.826,709.5 970,708.5C 945.181,708.11 922.681,714.943 902.5,729C 892.969,736.895 887.802,747.061 887,759.5C 885.619,777.262 888.619,794.262 896,810.5C 903.494,824.826 911.494,838.826 920,852.5C 929.633,868.565 935.133,885.899 936.5,904.5C 936.955,911.892 935.621,918.892 932.5,925.5C 931.833,926.833 931.167,928.167 930.5,929.5C 929.928,930.973 929.095,932.307 928,933.5C 927.536,932.906 927.369,932.239 927.5,931.5C 927.44,928.659 926.774,925.993 925.5,923.5C 918.01,898.355 904.343,877.188 884.5,860C 872.849,851.174 860.849,842.84 848.5,835C 824.867,811.443 814.7,782.943 818,749.5C 824.614,706.244 847.781,675.744 887.5,658C 911.185,649.39 934.851,649.39 958.5,658C 983.521,673.922 1010.85,682.422 1040.5,683.5C 1048.99,683.352 1057.32,682.352 1065.5,680.5 Z"/></g>
<g><path style="opacity:0.99" fill="#2a8c85" d="M 945.5,723.5 C 970.028,723.201 986.528,734.535 995,757.5C 1000.15,784.699 989.986,803.532 964.5,814C 937.967,819.946 918.801,810.779 907,786.5C 899.99,762.859 906.49,744.026 926.5,730C 932.586,726.694 938.92,724.528 945.5,723.5 Z"/></g>
<g><path style="opacity:0.999" fill="#063f8b" d="M 125.5,724.5 C 154.062,723.512 171.562,736.846 178,764.5C 179.582,793.589 166.082,811.089 137.5,817C 108.883,818.049 91.7166,804.549 86,776.5C 85.4279,748.615 98.5945,731.282 125.5,724.5 Z"/></g>
<g><path style="opacity:0.991" fill="#a153b8" d="M 401.5,1056.5 C 402.082,1060.53 403.416,1064.2 405.5,1067.5C 405.158,1068.34 404.492,1068.67 403.5,1068.5C 401.772,1066.12 399.439,1064.46 396.5,1063.5C 386.725,1054.97 380.225,1044.3 377,1031.5C 374.765,1021.29 373.431,1010.95 373,1000.5C 373.026,983.501 373.026,966.501 373,949.5C 366.278,881.549 331.445,861.049 268.5,888C 255.335,895.415 242.335,903.081 229.5,911C 215.684,918.716 201.017,924.049 185.5,927C 177.404,927.827 169.404,927.327 161.5,925.5C 161.894,921.653 162.894,917.986 164.5,914.5C 189.264,905.861 209.764,891.195 226,870.5C 233.247,860.34 240.247,850.006 247,839.5C 277.147,809.755 312.647,800.922 353.5,813C 406.284,832.393 431.784,870.226 430,926.5C 429.317,931.234 428.317,935.9 427,940.5C 420.667,954.167 414.333,967.833 408,981.5C 399.048,1005.96 396.881,1030.96 401.5,1056.5 Z"/></g>
<g><path style="opacity:0.993" fill="#ed1e2f" d="M 925.5,923.5 C 926.774,925.993 927.44,928.659 927.5,931.5C 910.122,936.331 893.122,935.164 876.5,928C 857.389,918.947 839.055,908.614 821.5,897C 800.494,885.131 778.161,881.131 754.5,885C 745.884,886.723 738.717,890.89 733,897.5C 717.502,918.123 710.002,941.457 710.5,967.5C 711.856,985.176 711.689,1002.84 710,1020.5C 708.824,1043.88 698.657,1061.88 679.5,1074.5C 679.167,1074.5 678.833,1074.5 678.5,1074.5C 678.833,1072.5 679.167,1070.5 679.5,1068.5C 680.931,1067.22 681.598,1065.55 681.5,1063.5C 687.441,1035.41 684.941,1008.08 674,981.5C 668.631,970.147 663.298,958.814 658,947.5C 647.215,895.237 664.715,855.403 710.5,828C 752.138,806.466 791.804,809.466 829.5,837C 834.034,841.199 838.201,845.699 842,850.5C 852.523,869.693 866.023,886.526 882.5,901C 895.447,911.14 909.78,918.64 925.5,923.5 Z"/></g>
<g><path style="opacity:0.991" fill="#5ab5d6" d="M 681.5,1063.5 C 681.598,1065.55 680.931,1067.22 679.5,1068.5C 671.672,1068.06 664.339,1065.89 657.5,1062C 643.15,1051.65 631.65,1038.82 623,1023.5C 615,1009.5 607,995.5 599,981.5C 588.581,965.412 574.748,953.246 557.5,945C 544.845,939.002 532.179,939.002 519.5,945C 502.845,953.991 489.011,966.157 478,981.5C 466.923,1002.67 454.589,1023 441,1042.5C 435.353,1048.9 429.186,1054.74 422.5,1060C 417.312,1063.59 411.646,1066.09 405.5,1067.5C 403.416,1064.2 402.082,1060.53 401.5,1056.5C 418.387,1037.04 428.554,1014.38 432,988.5C 429.382,928.829 456.548,890.663 513.5,874C 559.881,865.121 597.714,878.954 627,915.5C 634.326,926.136 639.326,937.803 642,950.5C 641.081,982.926 648.415,1013.26 664,1041.5C 669.131,1049.45 674.964,1056.78 681.5,1063.5 Z"/></g>
<g><path style="opacity:0.99" fill="#a253b8" d="M 300.5,890.5 C 331.78,890.782 349.114,906.448 352.5,937.5C 350.019,961.14 337.353,975.973 314.5,982C 293.726,984.865 277.559,977.699 266,960.5C 253.828,934.014 259.662,912.514 283.5,896C 289.038,893.374 294.705,891.54 300.5,890.5 Z"/></g>
<g><path style="opacity:0.992" fill="#ed1e2f" d="M 775.5,896.5 C 805.744,897.744 822.411,913.411 825.5,943.5C 822.488,971.179 807.155,986.512 779.5,989.5C 756.031,988.521 740.864,976.855 734,954.5C 729.976,922.172 743.809,902.838 775.5,896.5 Z"/></g>
<g><path style="opacity:0.649" fill="#ef1b29" d="M 932.5,925.5 C 933.675,925.281 934.675,925.614 935.5,926.5C 934.312,928.262 932.645,929.262 930.5,929.5C 931.167,928.167 931.833,926.833 932.5,925.5 Z"/></g>
<g><path style="opacity:0.99" fill="#5ab5d6" d="M 537.5,958.5 C 564.253,958.097 581.087,970.764 588,996.5C 590.575,1026.24 577.408,1044.4 548.5,1051C 521.6,1052.42 504.433,1040.25 497,1014.5C 494.253,983.786 507.753,965.119 537.5,958.5 Z"/></g>
<g><path style="opacity:0.975" fill="#59b6da" d="M 396.5,1063.5 C 399.439,1064.46 401.772,1066.12 403.5,1068.5C 399.108,1069.09 394.774,1069.09 390.5,1068.5C 392.122,1066.36 394.122,1064.69 396.5,1063.5 Z"/></g>
</svg>
